<svg width="800" height="800" viewBox="0 0 800 800" fill="none" xmlns="http://www.w3.org/2000/svg">
    <!-- Grama/Vegetação de fundo -->
    <path d="M0 700C200 650 400 750 600 700C800 650 900 700 900 700V850H0V700Z" fill="#1B5E20" opacity="0.4"/>
    
    <!-- Trilha principal -->
    <path d="M100 850C100 600 700 500 700 200C700 -100 300 -50 300 -150" stroke="#2E7D32" stroke-width="8" stroke-dasharray="20 15" opacity="0.5"/>
    
    <!-- Folhas Grandes -->
    <path d="M50 150C90 110 150 110 190 150C150 190 90 190 50 150Z" fill="#388E3C" opacity="0.4" transform="rotate(-20 120 150)"/>
    <path d="M650 500C690 460 750 460 790 500C750 540 690 540 650 500Z" fill="#43A047" opacity="0.3" transform="rotate(15 720 500)"/>
    <path d="M100 400C130 370 180 370 210 400C180 430 130 430 100 400Z" fill="#2E7D32" opacity="0.2"/>
    
    <!-- Luzes Filtradas -->
    <circle cx="200" cy="200" r="100" fill="#C8E6C9" opacity="0.3"/>
    <circle cx="600" cy="100" r="150" fill="#DCEDC8" opacity="0.2"/>
    <circle cx="700" cy="600" r="80" fill="#A5D6A7" opacity="0.15"/>
</svg>
